<?xml version="1.0" standalone="no"?>
<!DOCTYPE svg PUBLIC "-//W3C//DTD SVG 20010904//EN"
 "http://www.w3.org/TR/2001/REC-SVG-20010904/DTD/svg10.dtd">
<svg version="1.0" xmlns="http://www.w3.org/2000/svg"
 width="700.000000pt" height="700.000000pt" viewBox="0 0 700.000000 700.000000"
 preserveAspectRatio="xMidYMid meet">
<metadata>
Created by potrace 1.11, written by Peter Selinger 2001-2013
</metadata>
<g transform="translate(0.000000,700.000000) scale(0.100000,-0.100000)"
fill="#000000" stroke="none">
<path d="M236 5154 c-9 -8 -16 -23 -16 -33 0 -9 52 -106 115 -215 l115 -198 0
-1428 0 -1428 -115 -196 c-63 -109 -115 -203 -115 -210 0 -35 11 -36 670 -36
665 0 670 0 670 39 0 8 -50 103 -110 212 l-110 198 0 1422 0 1422 116 206 c65
113 119 209 121 213 2 4 -5 16 -17 28 -20 20 -29 20 -664 20 -573 0 -646 -2
-660 -16z"/>
<path d="M5831 5143 c-27 -23 -311 -614 -311 -648 0 -29 18 -39 98 -50 l52 -7
0 -1290 0 -1289 -115 -198 c-63 -108 -115 -204 -115 -212 0 -39 4 -39 677 -39
l653 0 5 23 c5 18 -21 73 -104 223 l-111 199 0 1427 0 1427 105 189 c58 104
105 198 105 210 0 11 -10 28 -22 36 -20 14 -80 16 -459 16 -401 0 -438 -1
-458 -17z"/>
<path d="M2262 5140 c-12 -5 -25 -16 -28 -25 -4 -9 44 -91 125 -216 l131 -200
0 -119 c0 -65 3 -125 6 -134 7 -18 52 -20 119 -7 l40 7 670 -1373 c369 -756
677 -1380 686 -1388 18 -17 55 -20 64 -6 33 54 425 859 425 873 0 29 -1218
2560 -1242 2581 -19 16 -57 17 -497 16 -262 0 -486 -4 -499 -9z"/>
<path d="M2428 1808 c-22 -17 -228 -343 -228 -361 0 -34 21 -37 257 -37 l233
0 6 24 c9 36 -214 386 -246 386 -3 0 -13 -6 -22 -12z"/>
</g>
</svg>
