<?xml version="1.0" encoding="utf-8"?>
<!-- Generator: Adobe Illustrator 21.1.0, SVG Export Plug-In . SVG Version: 6.00 Build 0)  -->
<svg version="1.1" id="Layer_1" xmlns="http://www.w3.org/2000/svg" xmlns:xlink="http://www.w3.org/1999/xlink" x="0px" y="0px"
	 width="156px" height="50px" viewBox="0 0 156 50" style="enable-background:new 0 0 156 50;" xml:space="preserve">
<style type="text/css">
	.st0{fill:#FFFFFF;}
</style>
<path class="st0" d="M11.3,40.3c0.1,0.1,0.1,0.2,0,0.3c-0.1,0.1-0.2,0.2-0.3,0.2H0.3c-0.1,0-0.2-0.1-0.3-0.2C0,40.5,0,40.4,0,40.3
	L2,37V13.1L0,9.8C0,9.7,0,9.6,0,9.5s0.2-0.2,0.3-0.2H11c0.1,0,0.2,0.1,0.3,0.2c0.1,0.1,0.1,0.2,0,0.3l-2,3.3V37L11.3,40.3z M21,40.3
	c0.1,0.1,0.1,0.2,0,0.3c-0.1,0.1-0.2,0.2-0.3,0.2h-3.5c-0.1,0-0.2-0.1-0.3-0.2c-0.1-0.1-0.1-0.2,0-0.3l1.8-2.8
	c0.1-0.1,0.2-0.2,0.3-0.2s0.2,0.1,0.3,0.2L21,40.3z M36.3,31c0,0.1,0,0.2,0,0.3l-3.4,7c0,0.1-0.1,0.1-0.2,0.2l-0.1,0
	c0,0-0.1,0-0.1,0c-0.1,0-0.2-0.1-0.3-0.2L20.7,15.1l-1,0.2c-0.1,0-0.2,0-0.3-0.1c-0.1-0.1-0.1-0.2-0.1-0.3v-2l-2.1-3.3
	c-0.1-0.1-0.1-0.2,0-0.3c0.1-0.1,0.2-0.2,0.3-0.2h8.2c0.1,0,0.2,0.1,0.3,0.2L36.3,31z M55.6,40.3c0.1,0.1,0.1,0.2,0,0.3
	c-0.1,0.1-0.2,0.2-0.3,0.2H44.6c-0.1,0-0.2-0.1-0.3-0.2c-0.1-0.1-0.1-0.2,0-0.3l2-3.3V15.3l-1-0.2c-0.1,0-0.2-0.1-0.2-0.2
	c0-0.1,0-0.2,0-0.3l2.5-5.1c0.1-0.1,0.2-0.2,0.3-0.2h7.5c0.1,0,0.2,0.1,0.3,0.2c0.1,0.1,0.1,0.2,0,0.3l-2,3.3V37L55.6,40.3z
	 M70.5,9.7v30.8c0,0.2-0.2,0.3-0.3,0.3h-8.7c-0.1,0-0.2-0.1-0.3-0.2c-0.1-0.1-0.1-0.2,0-0.3l2-3.3V13.2l-2-3.3
	c-0.1-0.1-0.1-0.2,0-0.3c0.1-0.1,0.2-0.2,0.3-0.2h8.7C70.3,9.3,70.5,9.5,70.5,9.7z M78.9,23.7c-0.1,0-0.2-0.1-0.3-0.2
	c-0.1-0.1,0-0.3,0.1-0.4c0.2-0.2,0.4-0.4,0.6-0.6c0.6-0.7,1-1.6,1.3-2.6c0.3-1,0.4-2,0.4-3.1c0-1-0.1-2-0.3-2.9
	c-0.2-1-0.6-1.9-1.1-2.6c-0.3-0.5-0.7-0.9-1.2-1.2c-0.1-0.1-0.2-0.2-0.1-0.4c0.1-0.1,0.2-0.2,0.3-0.2c1.3,0.1,2.5,0.3,3.5,0.5
	c1.4,0.4,2.7,0.9,3.6,1.5c0.9,0.6,1.6,1.3,2,2.2c0.5,0.8,0.7,1.7,0.7,2.7c0,0.8-0.1,1.6-0.4,2.3c-0.3,0.7-0.7,1.4-1.3,2
	c-0.6,0.6-1.4,1.2-2.4,1.7C83.3,22.7,80.2,23.4,78.9,23.7C78.9,23.7,78.9,23.7,78.9,23.7z M89.9,33c0,1.5-0.3,2.7-1,3.7
	c-0.6,1-1.6,1.8-2.8,2.4c-1.3,0.6-3,1.1-4.9,1.4c-0.6,0.1-1.2,0.2-2,0.2c0,0,0,0,0,0c-0.1,0-0.3-0.1-0.3-0.2c-0.1-0.1,0-0.3,0.1-0.4
	c0.4-0.3,0.8-0.6,1.1-0.9c0.7-0.8,1.2-1.7,1.5-2.8c0.3-1,0.4-2.2,0.4-3.5c0-1.2-0.1-2.3-0.4-3.4c-0.3-1.1-0.8-2-1.5-2.8
	c-0.3-0.3-0.5-0.5-0.8-0.8c-0.1-0.1-0.2-0.3-0.1-0.4c0.1-0.1,0.2-0.2,0.4-0.2c0.6,0.1,3.9,0.7,5.2,1.2c1.2,0.5,2.1,1.1,2.9,1.7
	c0.7,0.6,1.3,1.4,1.7,2.2c0,0,0,0,0,0C89.7,31.2,89.9,32.1,89.9,33z M109,41c0,0.1-0.2,0.2-0.3,0.2c0,0,0,0,0,0
	c-1.3-0.1-2.5-0.3-3.6-0.7c-1.6-0.5-2.9-1.2-4.1-2.2c-1.1-0.9-2-2.1-2.6-3.5c-0.6-1.4-0.9-3-0.9-4.8V13.1l-2-3.3
	c-0.1-0.1-0.1-0.2,0-0.3c0.1-0.1,0.2-0.2,0.3-0.2h10.7c0.1,0,0.2,0.1,0.3,0.2c0.1,0.1,0.1,0.2,0,0.3l-2,3.3v17.8
	c0,1.6,0.2,3.1,0.5,4.5c0.4,1.4,0.9,2.5,1.6,3.5c0.5,0.7,1.2,1.4,1.9,1.8C109,40.7,109,40.9,109,41z M124.5,9.8l-1.8,2.8
	c-0.1,0.1-0.2,0.2-0.3,0.2c0,0,0,0,0,0c-0.1,0-0.2-0.1-0.3-0.2l-1.8-2.8c-0.1-0.1-0.1-0.2,0-0.3c0.1-0.1,0.2-0.2,0.3-0.2h3.5
	c0.1,0,0.2,0.1,0.3,0.2C124.6,9.5,124.6,9.7,124.5,9.8z M139.4,9.7v30.8c0,0.2-0.2,0.3-0.3,0.3h-8.7c-0.1,0-0.2-0.1-0.3-0.2
	c-0.1-0.1-0.1-0.2,0-0.3l2-3.3V13.2l-2-3.3c-0.1-0.1-0.1-0.2,0-0.3c0.1-0.1,0.2-0.2,0.3-0.2h8.7C139.3,9.3,139.4,9.5,139.4,9.7z
	 M149.2,22.5v4.7c0,0.1-0.1,0.3-0.2,0.3c0,0-0.1,0-0.1,0c-0.1,0-0.2,0-0.2-0.1l-2.5-2.5c-0.1-0.1-0.1-0.2-0.1-0.2
	c0-0.1,0-0.2,0.1-0.2l2.5-2.2c0.1-0.1,0.2-0.1,0.4-0.1C149.1,22.2,149.2,22.3,149.2,22.5z M153.5,14.6l-3.8-4.7
	c-0.1-0.1-0.1-0.2,0-0.3c0.1-0.1,0.2-0.2,0.3-0.2h3.8c0.2,0,0.3,0.1,0.3,0.3v4.7c0,0.1-0.1,0.3-0.2,0.3c0,0-0.1,0-0.1,0
	C153.6,14.7,153.5,14.7,153.5,14.6z M156,35.9l-0.5,4.6c0,0.2-0.2,0.3-0.3,0.3h-3.8c-0.1,0-0.3-0.1-0.3-0.2c-0.1-0.1,0-0.3,0.1-0.4
	l4.4-4.6c0.1-0.1,0.3-0.1,0.4-0.1C155.9,35.7,156,35.8,156,35.9z"/>
</svg>
