<?xml version="1.0" encoding="utf-8"?>
<!-- Generator: Adobe Illustrator 21.1.0, SVG Export Plug-In . SVG Version: 6.00 Build 0)  -->
<svg version="1.1" id="Layer_1" xmlns="http://www.w3.org/2000/svg" xmlns:xlink="http://www.w3.org/1999/xlink" x="0px" y="0px"
	 width="226px" height="400px" viewBox="0 0 226 400" style="enable-background:new 0 0 226 400;" xml:space="preserve">
<style type="text/css">
	.st0{fill:url(#SVGID_1_);}
</style>
<linearGradient id="SVGID_1_" gradientUnits="userSpaceOnUse" x1="-15.5797" y1="126.5355" x2="237.5567" y2="274.0509">
	<stop  offset="0" style="stop-color:#C69681"/>
	<stop  offset="0.2847" style="stop-color:#DBBEAD"/>
	<stop  offset="0.7079" style="stop-color:#EFAB92"/>
	<stop  offset="1" style="stop-color:#C69681"/>
</linearGradient>
<path class="st0" d="M58.9,1.2l0-0.2l-0.1,0L58,0.3l-0.3,1l-0.1,0l0.1,0.2L0.1,229.7l0,0.2l0.1,0.3l0.6,0.6l162.5,168.7l0.8,0.8
	l61.9-229.2l0.1-0.3L58.9,1.2z M58.3,4l52.1,196.7l-109,28.6L58.3,4z M2.1,230.5L110.8,202l51.7,195L2.1,230.5z M163.7,396.7
	l-51.7-195l112.3-29.5L163.7,396.7z M111.7,200.4L59.5,3.6l164.8,167.3L111.7,200.4z"/>
</svg>
