<?xml version="1.0" encoding="utf-8"?>
<!-- Generator: Adobe Illustrator 21.1.0, SVG Export Plug-In . SVG Version: 6.00 Build 0)  -->
<svg version="1.1" id="Layer_1" xmlns="http://www.w3.org/2000/svg" xmlns:xlink="http://www.w3.org/1999/xlink" x="0px" y="0px"
	 width="270px" height="295px" viewBox="0 0 270 295" style="enable-background:new 0 0 270 295;" xml:space="preserve">
<style type="text/css">
	.st0{fill:url(#SVGID_1_);}
</style>
<linearGradient id="SVGID_1_" gradientUnits="userSpaceOnUse" x1="107.722" y1="49.9502" x2="207.4532" y2="318.2497">
	<stop  offset="0" style="stop-color:#C69681"/>
	<stop  offset="0.2847" style="stop-color:#DBBEAD"/>
	<stop  offset="0.7079" style="stop-color:#EFAB92"/>
	<stop  offset="1" style="stop-color:#C69681"/>
</linearGradient>
<path class="st0" d="M242.1,0L0,171.6L270,295L242.1,0z M268.6,291.2l-96.9-135.5l83.4-7.7L268.6,291.2z M255,147l-82.8,7.6
	L241.5,3.8L255,147z M241.3,1.8l-70.2,153l-49-68.5L241.3,1.8z M121.3,86.9l48.6,68L3.7,170.2L121.3,86.9z M2,171.4l0.1-0.1
	l168.5-15.5l-35.2,76.6L2,171.4z M136.3,232.8l34.9-76.1l97.6,136.5l0,0.1L136.3,232.8z"/>
</svg>
