<?xml version="1.0" encoding="utf-8"?>
<!-- Generator: Adobe Illustrator 21.1.0, SVG Export Plug-In . SVG Version: 6.00 Build 0)  -->
<svg version="1.1" id="Layer_1" xmlns="http://www.w3.org/2000/svg" xmlns:xlink="http://www.w3.org/1999/xlink" x="0px" y="0px"
	 width="216px" height="240px" viewBox="0 0 216 240" style="enable-background:new 0 0 216 240;" xml:space="preserve">
<style type="text/css">
	.st0{fill:url(#SVGID_1_);}
</style>
<linearGradient id="SVGID_1_" gradientUnits="userSpaceOnUse" x1="-3.6214" y1="120.3639" x2="215.3702" y2="113.2355">
	<stop  offset="0" style="stop-color:#C69681"/>
	<stop  offset="0.2847" style="stop-color:#DBBEAD"/>
	<stop  offset="0.7079" style="stop-color:#EFAB92"/>
	<stop  offset="1" style="stop-color:#C69681"/>
</linearGradient>
<path class="st0" d="M216,132.6L15.2,0.3L14.8,0L0.3,239.1L0.3,240L216,132.6z M214.4,132.5l-105.9,52.7l-30.4-60.7L214.4,132.5
	L214.4,132.5z M212.9,131.5l-135.3-7.9l37.6-56.5L212.9,131.5z M114.6,66.7l-37.3,56.1L16.9,2.3L114.6,66.7z M15.6,1.5l61.2,122.1
	l-68.3-4L15.6,1.5z M8.3,120.4l67.9,4L1.3,236.9L8.3,120.4z M1.2,238.5l76-114.1l30.6,61.1L1.2,238.6L1.2,238.5z"/>
</svg>
