<?xml version="1.0" encoding="utf-8"?>
<!-- Generator: Adobe Illustrator 21.1.0, SVG Export Plug-In . SVG Version: 6.00 Build 0)  -->
<svg version="1.1" id="Layer_1" xmlns="http://www.w3.org/2000/svg" xmlns:xlink="http://www.w3.org/1999/xlink" x="0px" y="0px"
	 width="460px" height="460px" viewBox="0 0 460 460" style="enable-background:new 0 0 460 460;" xml:space="preserve">
<style type="text/css">
	.st0{fill:url(#SVGID_1_);}
</style>
<linearGradient id="SVGID_1_" gradientUnits="userSpaceOnUse" x1="-1.6643" y1="237.6527" x2="461.9143" y2="222.2743">
	<stop  offset="0" style="stop-color:#C69681"/>
	<stop  offset="0.2847" style="stop-color:#DBBEAD"/>
	<stop  offset="0.7079" style="stop-color:#EFAB92"/>
	<stop  offset="1" style="stop-color:#C69681"/>
</linearGradient>
<path class="st0" d="M460,168.2l-0.4-0.4l-0.1-0.5l-0.3,0.1L292.7,0.9l0.1-0.3l-0.5-0.1l-0.4-0.4L291.8,0L62,61.5l-0.3,0.1
	L0.2,291.3l-0.1,0.3L168.5,460l229.7-61.6l0.3-0.1l61.6-229.7l0.1-0.3L460,168.2z M292.4,2l165.7,165.7l-226.9,61.2L292.4,2z
	 M231.4,229.9l226.5-61.1L314.2,312.6L231.4,229.9z M313.4,313.3L169.7,457.1l61.1-226.5L313.4,313.3z M230.2,228.6l-82.7-82.7
	L291.3,2.1L230.2,228.6z M229.5,229.4L3,290.4l143.8-143.8L229.5,229.4z M290.8,1.3l-144,144L63.7,62.1L290.8,1.3z M62.6,62.4
	l83.5,83.5L1.4,290.6L62.6,62.4z M168.3,458.3L1.7,291.8l228-61.5L168.3,458.3z M169.5,458.7L314.2,314l83.5,83.5L169.5,458.7z
	 M398,396.4l-83.1-83.1l144-144L398,396.4z"/>
</svg>
