<?xml version="1.0" encoding="utf-8"?>
<!-- Generator: Adobe Illustrator 21.1.0, SVG Export Plug-In . SVG Version: 6.00 Build 0)  -->
<svg version="1.1" id="Layer_1" xmlns="http://www.w3.org/2000/svg" xmlns:xlink="http://www.w3.org/1999/xlink" x="0px" y="0px"
	 width="160px" height="34px" viewBox="0 0 160 34" style="enable-background:new 0 0 160 34;" xml:space="preserve">
<style type="text/css">
	.st0{fill:#FFFFFF;}
</style>
<g>
	<path class="st0" d="M11.6,33.1c0.1,0.1,0.1,0.2,0,0.3c-0.1,0.1-0.2,0.2-0.3,0.2h-11c-0.1,0-0.2-0.1-0.3-0.2s-0.1-0.2,0-0.3l2-3.4
		V4.9l-2-3.4C0,1.3,0,1.2,0.1,1.1s0.2-0.2,0.3-0.2h11c0.1,0,0.2,0.1,0.3,0.2c0.1,0.1,0.1,0.2,0,0.3l-2,3.4v24.8L11.6,33.1z"/>
	<path class="st0" d="M21.6,33.1c0.1,0.1,0.1,0.2,0,0.3c-0.1,0.1-0.2,0.2-0.3,0.2h-3.6c-0.1,0-0.2-0.1-0.3-0.2
		c-0.1-0.1-0.1-0.2,0-0.3l1.8-2.9c0.1-0.1,0.2-0.2,0.3-0.2s0.2,0.1,0.3,0.2L21.6,33.1z M37.2,23.5c0,0.1,0,0.2,0,0.3l-3.5,7.3
		c0,0.1-0.1,0.1-0.2,0.2l-0.1,0c0,0-0.1,0-0.1,0c-0.1,0-0.2-0.1-0.3-0.2L21.2,7l-1,0.2c-0.1,0-0.2,0-0.3-0.1
		c-0.1-0.1-0.1-0.2-0.1-0.3v-2l-2.2-3.4c-0.1-0.1-0.1-0.2,0-0.3c0.1-0.1,0.2-0.2,0.3-0.2h8.4c0.1,0,0.3,0.1,0.3,0.2L37.2,23.5z
		 M57.1,33.1c0.1,0.1,0.1,0.2,0,0.3c-0.1,0.1-0.2,0.2-0.3,0.2H45.8c-0.1,0-0.2-0.1-0.3-0.2c-0.1-0.1-0.1-0.2,0-0.3l2-3.4V7.2
		l-1.1-0.2c-0.1,0-0.2-0.1-0.2-0.2c0-0.1,0-0.2,0-0.3l2.5-5.3C48.8,1,49,0.9,49.1,0.9h7.7c0.1,0,0.2,0.1,0.3,0.2
		c0.1,0.1,0.1,0.2,0,0.3L55,4.9v24.8L57.1,33.1z"/>
	<path class="st0" d="M72.3,1.3v32c0,0.2-0.2,0.3-0.3,0.3h-8.9c-0.1,0-0.2-0.1-0.3-0.2c-0.1-0.1-0.1-0.2,0-0.3l2-3.5V4.9l-2-3.4
		c-0.1-0.1-0.1-0.2,0-0.3C62.9,1,63,1,63.1,1H72C72.2,1,72.3,1.1,72.3,1.3z M80.9,15.8c-0.1,0-0.2-0.1-0.3-0.2
		c-0.1-0.1,0-0.3,0.1-0.4c0.2-0.2,0.4-0.4,0.6-0.6c0.6-0.8,1.1-1.7,1.3-2.7c0.3-1,0.4-2.1,0.4-3.2c0-1.1-0.1-2.1-0.3-3.1
		c-0.2-1-0.6-1.9-1.1-2.7c-0.3-0.5-0.8-0.9-1.2-1.3c-0.1-0.1-0.2-0.3-0.1-0.4S80.5,1,80.6,1c1.3,0.1,2.5,0.3,3.6,0.5
		c1.5,0.4,2.7,0.9,3.7,1.6c0.9,0.6,1.6,1.4,2.1,2.2c0.5,0.9,0.7,1.8,0.7,2.8c0,0.8-0.1,1.6-0.4,2.3c-0.3,0.7-0.8,1.4-1.4,2.1
		c-0.6,0.7-1.5,1.2-2.4,1.8C85.5,14.8,82.3,15.6,80.9,15.8C81,15.8,81,15.8,80.9,15.8z M92.2,25.5c0,1.5-0.3,2.8-1,3.8
		c-0.7,1-1.6,1.8-2.9,2.5c-1.3,0.7-3,1.1-5,1.4c-0.6,0.1-1.2,0.2-2,0.2c0,0,0,0,0,0c-0.1,0-0.3-0.1-0.3-0.2c-0.1-0.1,0-0.3,0.1-0.4
		c0.4-0.3,0.8-0.6,1.1-1c0.7-0.8,1.2-1.8,1.5-2.9c0.3-1.1,0.5-2.3,0.5-3.7c0-1.3-0.1-2.4-0.4-3.5c-0.3-1.1-0.8-2.1-1.5-2.9
		c-0.3-0.3-0.5-0.6-0.8-0.8c-0.1-0.1-0.2-0.3-0.1-0.4c0.1-0.1,0.2-0.2,0.4-0.2c0.7,0.1,4,0.7,5.3,1.2c1.2,0.5,2.2,1.1,2.9,1.8
		c0.7,0.7,1.3,1.4,1.7,2.3c0,0,0,0,0,0C92,23.6,92.2,24.5,92.2,25.5z"/>
	<path class="st0" d="M111.8,33.9c0,0.1-0.2,0.2-0.3,0.2c0,0,0,0,0,0c-1.3-0.1-2.5-0.3-3.7-0.7c-1.6-0.5-3-1.3-4.2-2.3
		c-1.1-1-2-2.2-2.7-3.6c-0.6-1.4-1-3.1-1-4.9V4.8l-2.1-3.4c-0.1-0.1-0.1-0.2,0-0.3C98,1,98.1,0.9,98.2,0.9h11c0.1,0,0.2,0.1,0.3,0.2
		c0.1,0.1,0.1,0.2,0,0.3l-2,3.4v18.4c0,1.7,0.2,3.3,0.5,4.6c0.4,1.4,0.9,2.6,1.7,3.6c0.6,0.8,1.2,1.4,2,1.9
		C111.8,33.6,111.9,33.7,111.8,33.9z M127.7,1.4l-1.8,2.9c-0.1,0.1-0.2,0.2-0.3,0.2c0,0,0,0,0,0c-0.1,0-0.2-0.1-0.3-0.2l-1.8-2.9
		c-0.1-0.1-0.1-0.2,0-0.3c0.1-0.1,0.2-0.2,0.3-0.2h3.6c0.1,0,0.2,0.1,0.3,0.2C127.8,1.2,127.8,1.3,127.7,1.4z"/>
	<path class="st0" d="M143,1.3v32c0,0.2-0.2,0.3-0.3,0.3h-8.9c-0.1,0-0.2-0.1-0.3-0.2s-0.1-0.2,0-0.3l2-3.5V4.9l-2-3.4
		c-0.1-0.1-0.1-0.2,0-0.3c0.1-0.1,0.2-0.2,0.3-0.2h8.9C142.9,1,143,1.1,143,1.3z M153,14.6v4.8c0,0.1-0.1,0.3-0.2,0.3
		c0,0-0.1,0-0.1,0c-0.1,0-0.2,0-0.2-0.1l-2.6-2.6c-0.1-0.1-0.1-0.2-0.1-0.3c0-0.1,0-0.2,0.1-0.2l2.6-2.3c0.1-0.1,0.2-0.1,0.4-0.1
		C152.9,14.3,153,14.4,153,14.6z M157.4,6.4l-3.9-4.9c-0.1-0.1-0.1-0.2,0-0.4c0.1-0.1,0.2-0.2,0.3-0.2h3.9c0.2,0,0.3,0.2,0.3,0.3
		v4.9c0,0.1-0.1,0.3-0.2,0.3c0,0-0.1,0-0.1,0C157.6,6.5,157.5,6.5,157.4,6.4z M160,28.6l-0.6,4.8c0,0.2-0.2,0.3-0.3,0.3h-3.9
		c-0.1,0-0.3-0.1-0.3-0.2c-0.1-0.1,0-0.3,0.1-0.4l4.5-4.8c0.1-0.1,0.3-0.1,0.4-0.1C160,28.3,160,28.4,160,28.6z"/>
</g>
</svg>
