<?xml version="1.0" encoding="utf-8"?>
<!-- Generator: Adobe Illustrator 21.1.0, SVG Export Plug-In . SVG Version: 6.00 Build 0)  -->
<svg version="1.1" id="Layer_1" xmlns="http://www.w3.org/2000/svg" xmlns:xlink="http://www.w3.org/1999/xlink" width="56px" height="32px" x="0px" y="0px"
	 viewBox="0 0 56 32" style="enable-background:new 0 0 56 32;" xml:space="preserve">
<style type="text/css">
	.st0{fill:#212121;}
</style>
<path class="st0" d="M11.4,31.5c0.1,0.1,0.1,0.2,0,0.3S11.2,32,11.1,32H0.4c-0.1,0-0.2-0.1-0.3-0.2c-0.1-0.1-0.1-0.2,0-0.3l2-3.4
	V3.9l-2-3.4C0,0.4,0,0.3,0.1,0.2C0.1,0.1,0.2,0,0.4,0h10.8c0.1,0,0.2,0.1,0.3,0.2c0.1,0.1,0.1,0.2,0,0.3l-2,3.4v24.3L11.4,31.5z"/>
<path class="st0" d="M21.1,31.5c0.1,0.1,0.1,0.2,0,0.3C21.1,32,21,32,20.8,32h-3.5c-0.1,0-0.2-0.1-0.3-0.2c-0.1-0.1-0.1-0.2,0-0.3
	l1.8-2.8c0.1-0.1,0.2-0.2,0.3-0.2c0,0,0,0,0,0c0.1,0,0.2,0.1,0.3,0.2L21.1,31.5z M36.5,22.1c0,0.1,0,0.2,0,0.3L33,29.6
	c0,0.1-0.1,0.1-0.2,0.2l-0.1,0c0,0-0.1,0-0.1,0c-0.1,0-0.2-0.1-0.3-0.2L20.8,6l-1,0.2c-0.1,0-0.2,0-0.3-0.1
	c-0.1-0.1-0.1-0.2-0.1-0.3v-2l-2.1-3.3c-0.1-0.1-0.1-0.2,0-0.3C17.3,0.1,17.4,0,17.6,0h8.2c0.1,0,0.2,0.1,0.3,0.2L36.5,22.1z
	 M55.9,31.5c0.1,0.1,0.1,0.2,0,0.3C55.9,32,55.8,32,55.7,32H44.9c-0.1,0-0.2-0.1-0.3-0.2c-0.1-0.1-0.1-0.2,0-0.3l2-3.4v-22l-1.1-0.2
	c-0.1,0-0.2-0.1-0.2-0.2c0-0.1,0-0.2,0-0.3l2.5-5.2C47.9,0.1,48,0,48.1,0h7.5c0.1,0,0.2,0.1,0.3,0.2C56,0.3,56,0.4,56,0.5l-2,3.4
	v24.3L55.9,31.5z"/>
</svg>
